<?xml version="1.0" standalone="no"?>
<!DOCTYPE svg PUBLIC "-//W3C//DTD SVG 20010904//EN" "http://www.w3.org/TR/2001/REC-SVG-20010904/DTD/svg10.dtd">
<!-- Created using Krita: https://krita.org -->
<svg xmlns="http://www.w3.org/2000/svg" 
    xmlns:xlink="http://www.w3.org/1999/xlink"
    xmlns:krita="http://krita.org/namespaces/svg/krita"
    xmlns:sodipodi="http://sodipodi.sourceforge.net/DTD/sodipodi-0.dtd"
    width="11.52pt"
    height="11.52pt"
    viewBox="0 0 11.52 11.52">
<defs/>
<ellipse id="shape0" transform="translate(1.44, 1.44)" rx="1.8" ry="1.68" cx="1.8" cy="1.68" fill="none" stroke="#ff2100" stroke-width="0.24" stroke-linecap="square" stroke-linejoin="bevel"/><ellipse id="shape1" transform="translate(1.68, 1.92)" rx="0.48" ry="0.36" cx="0.48" cy="0.36" fill="none" stroke="#ff2100" stroke-width="0.24" stroke-linecap="square" stroke-linejoin="bevel"/><ellipse id="shape2" transform="translate(4.08, 3.6)" rx="0.24" ry="0.36" cx="0.24" cy="0.36" fill="none" stroke="#ff2100" stroke-width="0.24" stroke-linecap="square" stroke-linejoin="bevel"/><ellipse id="shape3" transform="translate(1.2, 0.480000000000005)" rx="0.24" ry="0.12" cx="0.24" cy="0.12" fill="none" stroke="#ff2100" stroke-width="0.24" stroke-linecap="square" stroke-linejoin="bevel"/><ellipse id="shape4" transform="translate(0.480000000000003, 3.84)" rx="0.24" ry="0.6" cx="0.24" cy="0.6" fill="none" stroke="#ff2100" stroke-width="0.24" stroke-linecap="square" stroke-linejoin="bevel"/><circle id="shape5" transform="translate(4.8, 1.92)" r="2.28" cx="2.28" cy="2.28" fill="none" stroke="#ffe200" stroke-width="0.24" stroke-linecap="square" stroke-linejoin="bevel"/><ellipse id="shape6" transform="translate(5.52, 4.80000000000001)" rx="0.6" ry="0.48" cx="0.6" cy="0.48" fill="none" stroke="#ffe200" stroke-width="0.24" stroke-linecap="square" stroke-linejoin="bevel"/><ellipse id="shape7" transform="translate(7.68, 3.12)" rx="0.359999999999999" ry="0.24" cx="0.359999999999999" cy="0.24" fill="none" stroke="#ffe200" stroke-width="0.24" stroke-linecap="square" stroke-linejoin="bevel"/><ellipse id="shape8" transform="translate(9.84, 2.16000000000001)" rx="0.24" ry="0.36" cx="0.24" cy="0.36" fill="none" stroke="#ffe200" stroke-width="0.24" stroke-linecap="square" stroke-linejoin="bevel"/><ellipse id="shape9" transform="translate(9.36, 6.48)" rx="0.359999999999999" ry="0.36" cx="0.359999999999999" cy="0.36" fill="none" stroke="#ffe200" stroke-width="0.24" stroke-linecap="square" stroke-linejoin="bevel"/><ellipse id="shape10" transform="translate(4.56, 1.20000000000001)" rx="0.36" ry="0.24" cx="0.36" cy="0.24" fill="none" stroke="#ffe200" stroke-width="0.24" stroke-linecap="square" stroke-linejoin="bevel"/><ellipse id="shape11" transform="translate(1.2, 5.04)" rx="3.12" ry="3" cx="3.12" cy="3" fill="none" stroke="#00d9eb" stroke-width="0.24" stroke-linecap="square" stroke-linejoin="bevel"/><ellipse id="shape12" transform="translate(1.68, 6.96)" rx="0.48" ry="0.84" cx="0.48" cy="0.84" fill="none" stroke="#00d9eb" stroke-width="0.24" stroke-linecap="square" stroke-linejoin="bevel"/><circle id="shape13" transform="translate(5.04, 5.76)" r="0.12" cx="0.12" cy="0.12" fill="none" stroke="#00d9eb" stroke-width="0.24" stroke-linecap="square" stroke-linejoin="bevel"/><ellipse id="shape14" transform="translate(5.28, 8.4)" rx="0.72" ry="0.600000000000001" cx="0.72" cy="0.600000000000001" fill="none" stroke="#00d9eb" stroke-width="0.24" stroke-linecap="square" stroke-linejoin="bevel"/><ellipse id="shape15" transform="translate(8.16, 6.72)" rx="0.48" ry="0.48" cx="0.48" cy="0.48" fill="none" stroke="#00d9eb" stroke-width="0.24" stroke-linecap="square" stroke-linejoin="bevel"/><circle id="shape16" transform="translate(9.36, 5.28)" r="0.12" cx="0.12" cy="0.12" fill="none" stroke="#00d9eb" stroke-width="0.24" stroke-linecap="square" stroke-linejoin="bevel"/><circle id="shape17" transform="translate(9.6, 5.52)" r="0.12" cx="0.12" cy="0.12" fill="none" stroke="#00d9eb" stroke-width="0.24" stroke-linecap="square" stroke-linejoin="bevel"/><ellipse id="shape18" transform="translate(9.12, 8.64)" rx="0.6" ry="0.96" cx="0.6" cy="0.96" fill="none" stroke="#00d9eb" stroke-width="0.24" stroke-linecap="square" stroke-linejoin="bevel"/><ellipse id="shape19" transform="translate(1.2, 5.04)" rx="0.24" ry="0.24" cx="0.24" cy="0.24" fill="none" stroke="#00d9eb" stroke-width="0.24" stroke-linecap="square" stroke-linejoin="bevel"/>
</svg>
